<svg xmlns="http://www.w3.org/2000/svg" viewBox="0 0 853.77 1181.93"><defs><style>.cls-1{fill:#23af91;}.cls-2{fill:none;stroke:#000a1e;stroke-miterlimit:10;stroke-width:22px;}</style></defs><title>KuNft 1</title><g id="Layer_2" data-name="Layer 2"><g id="Layer_1-2" data-name="Layer 1"><path class="cls-1" d="M45.57,1062.88h7.28q10.11,0,14.56-6.34l44.22-64.17a19,19,0,0,1,8.3-7.15,30.49,30.49,0,0,1,11.39-1.89H171l-58.25,79.42a39.16,39.16,0,0,1-6.47,7.14,40.76,40.76,0,0,1-6.88,4.72,34.72,34.72,0,0,1,9.37,5.19,34.23,34.23,0,0,1,7.76,8.83l59.32,91.14H135.09a35.3,35.3,0,0,1-6.67-.54,17.16,17.16,0,0,1-4.79-1.61,13.85,13.85,0,0,1-3.5-2.63,25.67,25.67,0,0,1-2.83-3.58l-44.5-68.35a13.39,13.39,0,0,0-6.13-5.33,26.66,26.66,0,0,0-10-1.55H45.57v83.59H0V983.33H45.57Z"/><path class="cls-1" d="M231.62,1040v88.71q0,10.39,4.72,16t13.89,5.66a29.74,29.74,0,0,0,12.87-2.83,48.36,48.36,0,0,0,11.67-8V1040h41.79v139.81H290.68q-7.83,0-10.25-7l-2.56-8.09a81.49,81.49,0,0,1-8.36,7.08,51.29,51.29,0,0,1-9.24,5.39,55.18,55.18,0,0,1-10.58,3.51,56.5,56.5,0,0,1-12.4,1.28,49,49,0,0,1-20.3-4,41.76,41.76,0,0,1-14.89-11.12,48.44,48.44,0,0,1-9.17-16.85,69.67,69.67,0,0,1-3.1-21.31V1040Z"/><path class="cls-1" d="M377.9,983.6a12.88,12.88,0,0,1,3.64,1,12,12,0,0,1,3.1,2.09,34.36,34.36,0,0,1,3.37,3.64l93.3,118q-.54-5.67-.81-11t-.27-10V983.33h40.18v196.44H496.68a21.88,21.88,0,0,1-8.9-1.62,19,19,0,0,1-7-5.93l-92.62-117q.41,5.11.67,10t.27,9.24v105.29H348.92V983.33h24A40.53,40.53,0,0,1,377.9,983.6Z"/><path class="cls-1" d="M679.23,983.33v35.06H598.61v49.75h67.14v35.19H598.61v76.44H552.77V983.33Z"/><path class="cls-1" d="M845.6,983.33v36.14H790.32v160.3H744.75v-160.3H689.48V983.33Z"/><path class="cls-2" d="M517.29,828.89,297.55,483.34a57.36,57.36,0,0,1,0-61.55L517.29,76.25c22.54-35.44,74.26-35.44,96.79,0L833.82,421.79a57.36,57.36,0,0,1,0,61.55L614.08,828.89C591.55,864.32,539.83,864.32,517.29,828.89Z"/><path class="cls-1" d="M681.41,421.79,513,157,344.58,421.79a57.36,57.36,0,0,0,0,61.55L513,748.18,681.41,483.34A57.32,57.32,0,0,0,681.41,421.79Z"/><path class="cls-1" d="M256.26,421.72,468.84,87.44l-7.16-11.26c-22.54-35.44-74.26-35.44-96.79,0L145.15,421.72a57.36,57.36,0,0,0,0,61.55L364.89,828.82c22.53,35.43,74.25,35.43,96.79,0l7.16-11.26L256.26,483.27A57.36,57.36,0,0,1,256.26,421.72Z"/><path class="cls-1" d="M60.66,0h0A60.66,60.66,0,0,0,0,60.66V844.33A60.66,60.66,0,0,0,60.66,905h0a60.54,60.54,0,0,0,14.47-1.75V1.75A60.54,60.54,0,0,0,60.66,0Z"/><path class="cls-1" d="M93.48,9.66V895.34a60.6,60.6,0,0,0,27.85-51V60.66A60.58,60.58,0,0,0,93.48,9.66Z"/></g></g></svg>